<svg version="1.1" id="Layer_1" xmlns="http://www.w3.org/2000/svg" xmlns:xlink="http://www.w3.org/1999/xlink" x="0px"
     y="0px"
     width="100%" viewBox="0 0 225 225" enable-background="new 0 0 225 225" xml:space="preserve">
	<circle cx="112.5" cy="112.5" r="107.5" stroke="#ffc83d" stroke-width="10" fill="none"/>

    <path fill="none" stroke="#ffc83d" stroke-width="10"
          d="
M63.154350,148.908325
	C62.359188,150.636719 61.604527,152.916626 60.762047,152.949539
	C53.490932,153.233719 46.203999,153.113022 38.699982,153.113022
	C38.699982,126.547348 38.699982,100.456520 38.699982,74.175934
	C39.306206,74.029236 39.926155,73.746239 40.544857,73.748947
	C56.025272,73.816536 71.511299,73.686493 86.984116,74.076195
	C100.180916,74.408562 108.016777,80.607178 109.870216,91.314796
	C111.928810,103.207588 106.400284,112.292381 94.076385,117.305176
	C93.637596,117.483650 93.277077,117.854538 92.835648,118.167221
	C106.459137,125.662415 108.433006,140.848892 117.051643,153.104767
	C107.286972,153.104767 98.743057,153.225449 90.211380,152.957092
	C89.103813,152.922256 87.761215,151.046555 87.034882,149.741196
	C82.838455,142.199463 78.828308,134.554367 74.685638,126.982292
	C72.324730,122.666985 68.883224,120.212090 63.154137,121.202461
	C63.154137,130.223389 63.154137,139.320740 63.154350,148.908325
M83.918915,92.842003
	C77.700851,87.474937 70.396408,90.772316 63.497452,89.779121
	C63.497452,95.471428 63.497452,100.645081 63.497452,105.978737
	C66.990501,105.978737 70.131866,106.057846 73.266220,105.943916
	C74.737396,105.890434 76.198814,105.484619 77.658203,105.204887
	C84.726547,103.850060 86.571136,100.647423 83.918915,92.842003
z"/>
    <path fill="none" stroke="#ffc83d" stroke-width="10"
          d="
M121.068489,103.716248
	C116.609016,90.216927 123.271858,78.013992 137.263992,74.198524
	C146.696121,71.626503 156.352875,71.454552 165.908325,73.657898
	C178.092331,76.467354 183.786316,82.923721 185.665543,95.643608
	C185.043915,95.801239 184.416611,96.065880 183.775055,96.106743
	C176.974350,96.539894 170.171356,96.937454 163.489761,97.337570
	C158.752396,88.369301 154.654816,85.567474 147.957718,87.637032
	C145.688522,88.338257 143.107452,90.776344 142.471939,92.948288
	C142.113022,94.174965 145.097031,97.401039 147.139069,98.115868
	C153.062759,100.189491 159.294464,101.366745 165.358047,103.064461
	C168.226212,103.867500 171.063492,104.883835 173.781494,106.101112
	C182.090500,109.822365 187.628372,115.758759 188.290527,125.278496
	C188.955109,134.833206 185.654602,143.000946 177.541595,147.944778
	C172.488113,151.024231 166.311020,153.070374 160.424530,153.762131
	C153.441376,154.582794 146.099670,154.200363 139.142807,153.004486
	C125.523064,150.663284 117.995552,141.595200 116.703308,126.853638
	C124.245453,126.347198 131.783203,125.841064 139.615067,125.315178
	C140.897491,131.795059 143.319702,137.449402 150.627823,138.405838
	C153.478897,138.778976 156.906097,138.824844 159.284958,137.551514
	C161.531952,136.348785 163.980225,133.264816 164.066833,130.924210
	C164.151825,128.627563 161.898865,125.273308 159.736023,124.081184
	C156.045822,122.047180 151.600891,121.410095 147.514801,120.059731
	C142.333786,118.347534 136.751801,117.249435 132.167053,114.507950
	C127.939713,111.980209 124.802498,107.629395 121.068489,103.716248
z"/>
    <path fill="none" opacity="1.000000" stroke="#ffc83d"
          d="
M84.160614,93.180832
	C86.571136,100.647423 84.726547,103.850060 77.658203,105.204887
	C76.198814,105.484619 74.737396,105.890434 73.266220,105.943916
	C70.131866,106.057846 66.990501,105.978737 63.497452,105.978737
	C63.497452,100.645081 63.497452,95.471428 63.497452,89.779121
	C70.396408,90.772316 77.700851,87.474937 84.160614,93.180832
z"/>
</svg>